<svg width="100" height="100" viewBox="0 0 100 100" fill="none" xmlns="http://www.w3.org/2000/svg">
<g id="Size=Xlarge, Type=Client" clip-path="url(#clip0_1413_8980)">
<path id="Ellipse 1896" d="M100 50C100 77.6142 77.6142 100 50 100C22.3858 100 0 77.6142 0 50C0 22.3858 22.3858 0 50 0C77.6142 0 100 22.3858 100 50Z" fill="#F2F2F2"/>
<path id="Ellipse 1896 (Stroke)" fill-rule="evenodd" clip-rule="evenodd" d="M50 98C76.5097 98 98 76.5097 98 50C98 23.4903 76.5097 2 50 2C23.4903 2 2 23.4903 2 50C2 76.5097 23.4903 98 50 98ZM50 100C77.6142 100 100 77.6142 100 50C100 22.3858 77.6142 0 50 0C22.3858 0 0 22.3858 0 50C0 77.6142 22.3858 100 50 100Z" fill="#BDBDBD"/>
<path id="Subtract" d="M87.515 83.0558C95.2856 74.2437 100 62.6724 100 50C100 22.3858 77.6142 0 50 0C22.3858 0 0 22.3858 0 50C0 62.6724 4.71438 74.2437 12.485 83.0558C15.3982 72.819 31.0853 65 50 65C68.9148 65 84.6018 72.819 87.515 83.0558Z" fill="#F2F2F2"/>
<path id="Subtract (Stroke)" fill-rule="evenodd" clip-rule="evenodd" d="M88.0863 79.2178C94.3048 71.1246 98 60.9958 98 50C98 23.4903 76.5097 2 50 2C23.4903 2 2 23.4903 2 50C2 60.9958 5.69521 71.1246 11.9137 79.2178C14.3149 74.7968 18.7926 71.1017 24.3672 68.3905C31.3273 65.0055 40.2839 63 50 63C59.7161 63 68.6727 65.0055 75.6328 68.3905C81.2074 71.1017 85.6851 74.7968 88.0863 79.2178ZM89.0252 81.2604C95.8922 72.6988 100 61.8291 100 50C100 22.3858 77.6142 0 50 0C22.3858 0 0 22.3858 0 50C0 61.8291 4.10782 72.6988 10.9748 81.2604C11.4643 81.8708 11.9679 82.4694 12.485 83.0558C12.6906 82.3333 12.9598 81.6228 13.2894 80.9263C17.6287 71.7542 32.4202 65 50 65C67.5798 65 82.3713 71.7542 86.7106 80.9263C87.0402 81.6228 87.3094 82.3333 87.515 83.0558C88.0321 82.4694 88.5357 81.8708 89.0252 81.2604Z" fill="#BDBDBD"/>
<path id="Ellipse 1897" d="M69 41C69 51.4934 60.4934 60 50 60C39.5066 60 31 51.4934 31 41C31 30.5066 39.5066 22 50 22C60.4934 22 69 30.5066 69 41Z" fill="#F2F2F2"/>
<path id="Ellipse 1897 (Stroke)" fill-rule="evenodd" clip-rule="evenodd" d="M50 58C59.3888 58 67 50.3888 67 41C67 31.6112 59.3888 24 50 24C40.6112 24 33 31.6112 33 41C33 50.3888 40.6112 58 50 58ZM50 60C60.4934 60 69 51.4934 69 41C69 30.5066 60.4934 22 50 22C39.5066 22 31 30.5066 31 41C31 51.4934 39.5066 60 50 60Z" fill="#BDBDBD"/>
</g>
<defs>
<clipPath id="clip0_1413_8980">
<rect width="100" height="100" fill="white"/>
</clipPath>
</defs>
</svg>
