<svg width="100" height="100" viewBox="0 0 100 100" fill="none" xmlns="http://www.w3.org/2000/svg">
<g clip-path="url(#clip0_13639_27585)">
<circle cx="50" cy="50" r="50" fill="#EFF8FB"/>
<path d="M50 50C57.3379 50 63.2812 44.0566 63.2812 36.7188C63.2812 29.3809 57.3379 23.4375 50 23.4375C42.6621 23.4375 36.7188 29.3809 36.7188 36.7188C36.7188 44.0566 42.6621 50 50 50ZM50 56.6406C41.1348 56.6406 23.4375 61.0898 23.4375 69.9219V76.5625H76.5625V69.9219C76.5625 61.0898 58.8652 56.6406 50 56.6406Z" fill="#62B4DA"/>
<path fill-rule="evenodd" clip-rule="evenodd" d="M84.375 71.875C84.375 80.5044 77.3794 87.5 68.75 87.5C60.1206 87.5 53.125 80.5044 53.125 71.875C53.125 63.2456 60.1206 56.25 68.75 56.25C77.3794 56.25 84.375 63.2456 84.375 71.875ZM68.75 84.375C75.6536 84.375 81.25 78.7786 81.25 71.875C81.25 64.9714 75.6536 59.375 68.75 59.375C61.8464 59.375 56.25 64.9714 56.25 71.875C56.25 78.7786 61.8464 84.375 68.75 84.375Z" fill="#EFF8FB"/>
<circle cx="68.75" cy="71.875" r="12.5" fill="#35D48D"/>
<path d="M72.7809 67.1875C73.9383 67.1875 74.855 67.5309 75.5311 68.2177C76.2187 68.8931 76.5625 69.9119 76.5625 71.274V76.5625H73.881V71.6861C73.881 70.9535 73.7263 70.4098 73.4169 70.0549C73.1189 69.6886 72.6892 69.5055 72.1277 69.5055C71.4974 69.5055 70.9989 69.7115 70.6322 70.1236C70.2655 70.5243 70.0822 71.1252 70.0822 71.9265V76.5625H67.4006V71.6861C67.4006 70.2324 66.8162 69.5055 65.6473 69.5055C65.0285 69.5055 64.5358 69.7115 64.1691 70.1236C63.8024 70.5243 63.619 71.1252 63.619 71.9265V76.5625H60.9375V68.2177L63.4987 67.3249V68.3894C63.8425 68.0002 64.2607 67.7026 64.7535 67.4966C65.2577 67.2905 65.8078 67.1875 66.4037 67.1875C67.0569 67.1875 67.647 67.3191 68.1742 67.5824C68.7013 67.8342 69.1253 68.2063 69.4462 68.6985C69.8243 68.2177 70.2999 67.8457 70.8729 67.5824C71.4573 67.3191 72.0933 67.1875 72.7809 67.1875Z" fill="#EFF8FB"/>
</g>
<defs>
<clipPath id="clip0_13639_27585">
<rect width="100" height="100" fill="white"/>
</clipPath>
</defs>
</svg>
