<svg width="100" height="100" viewBox="0 0 100 100" fill="none" xmlns="http://www.w3.org/2000/svg">
<g clip-path="url(#clip0_13639_27573)">
<circle cx="50" cy="50" r="50" fill="#F2F2F2"/>
<path d="M63.2812 36.7188C63.2812 44.0566 57.3379 50 50 50C42.6621 50 36.7188 44.0566 36.7188 36.7188C36.7188 29.3809 42.6621 23.4375 50 23.4375C57.3379 23.4375 63.2812 29.3809 63.2812 36.7188Z" fill="#BDBDBD"/>
<path d="M45.0216 55.4396C35.7872 56.6619 23.4375 60.9814 23.4375 68.3594V76.5625H76.5625V68.3594C76.5625 60.9814 64.2128 56.6619 54.9784 55.4396L50 64.0625L45.0216 55.4396Z" fill="#BDBDBD"/>
<path fill-rule="evenodd" clip-rule="evenodd" d="M65.625 62.5H62.5V65.625L59.375 65.625V68.75H62.5V71.875H65.625V68.75H68.75V65.625L65.625 65.625V62.5Z" fill="#F2F2F2"/>
</g>
<defs>
<clipPath id="clip0_13639_27573">
<rect width="100" height="100" fill="white"/>
</clipPath>
</defs>
</svg>
