<svg width="24" height="24" viewBox="0 0 24 24" fill="none" xmlns="http://www.w3.org/2000/svg">
<g id="Navigation/Admin-Inactive">
<g id="admin / inactive">
<g id="icon / admin / inactive">
<path id="Union" fill-rule="evenodd" clip-rule="evenodd" d="M10.6016 12.8087C10.3087 12.5158 10.3087 12.0409 10.6016 11.748L14.1372 8.21246L16.2585 6.09114L17.6727 4.67692C17.9656 4.38403 18.4405 4.38403 18.7333 4.67692C19.0262 4.96982 19.0262 5.44469 18.7333 5.73758L17.8495 6.62147L19.0869 7.8589C19.3798 8.1518 19.3798 8.62667 19.0869 8.91956C18.794 9.21246 18.3191 9.21246 18.0262 8.91956L16.7888 7.68213L15.7281 8.74279L16.9656 9.98022C17.2585 10.2731 17.2585 10.748 16.9656 11.0409C16.6727 11.3338 16.1978 11.3338 15.9049 11.0409L14.6675 9.80345L11.6623 12.8087C11.3694 13.1015 10.8945 13.1015 10.6016 12.8087Z" fill="#4F4F4F"/>
<circle id="Ellipse 25" cx="8.30334" cy="15.1064" r="4" transform="rotate(-45 8.30334 15.1064)" stroke="#4F4F4F" stroke-width="1.5"/>
</g>
</g>
</g>
</svg>
