<svg width="24" height="24" viewBox="0 0 24 24" fill="none" xmlns="http://www.w3.org/2000/svg">
<g id="Navigation/Bind-Active">
<g id="bind / active">
<g id="icon / bind / active">
<path id="Union" fill-rule="evenodd" clip-rule="evenodd" d="M14.7998 2.25C15.0144 2.25 15.2186 2.34189 15.361 2.50242L19.561 7.23927C19.6826 7.37647 19.7498 7.55348 19.7498 7.73684V17.1579C19.7498 18.1244 18.9663 18.9079 17.9998 18.9079H8.7998C7.83331 18.9079 7.0498 18.1244 7.0498 17.1579V5C7.0498 3.48122 8.28102 2.25 9.7998 2.25H14.7998ZM5 5.09229C4.58579 5.09229 4.25 5.42807 4.25 5.84229V17.0002C4.25 19.6235 6.37665 21.7502 9 21.7502H16.2C16.6142 21.7502 16.95 21.4144 16.95 21.0002C16.95 20.586 16.6142 20.2502 16.2 20.2502H9C7.20508 20.2502 5.75 18.7951 5.75 17.0002V5.84229C5.75 5.42807 5.41421 5.09229 5 5.09229Z" fill="#4F4F4F"/>
<path id="Vector (Stroke)" fill-rule="evenodd" clip-rule="evenodd" d="M14.4482 2.25C14.8625 2.25 15.1982 2.58579 15.1982 3V6.79737H18.6482C19.0625 6.79737 19.3982 7.13315 19.3982 7.54737C19.3982 7.96158 19.0625 8.29737 18.6482 8.29737H14.4482C14.034 8.29737 13.6982 7.96158 13.6982 7.54737V3C13.6982 2.58579 14.034 2.25 14.4482 2.25Z" fill="white"/>
</g>
</g>
</g>
</svg>
