<svg width="24" height="24" viewBox="0 0 24 24" fill="none" xmlns="http://www.w3.org/2000/svg">
<g id="Navigation/Campaign-Active">
<g id="Icon">
<path d="M5.87505 3.9L12 12L5.87505 3.9Z" fill="#4F4F4F"/>
<path d="M15.0936 13.318C16.8021 15.0754 16.8021 17.9246 15.0936 19.682C13.3851 21.4393 10.615 21.4393 8.9064 19.682C7.19787 17.9246 7.19787 15.0754 8.9064 13.318C10.6149 11.5607 13.385 11.5607 15.0936 13.318Z" fill="#4F4F4F"/>
<path d="M18.125 3.9L12 12L18.125 3.9Z" fill="#4F4F4F"/>
<path d="M9.26672 12.9858L5.61357 8.28887C5.38616 7.99649 5.27245 7.8503 5.1916 7.68751C5.11986 7.54308 5.06743 7.38934 5.03573 7.23047C5 7.0514 5 6.86418 5 6.48975V5.88C5 4.87191 5 4.36786 5.19074 3.98282C5.35852 3.64413 5.62623 3.36876 5.95552 3.19619C6.32986 3 6.81991 3 7.8 3H16.2C17.1801 3 17.6701 3 18.0445 3.19619C18.3738 3.36876 18.6415 3.64413 18.8093 3.98282C19 4.36786 19 4.87191 19 5.88V6.48975C19 6.86418 19 7.0514 18.9643 7.23047C18.9326 7.38934 18.8801 7.54308 18.8084 7.68751C18.7275 7.8503 18.6138 7.99649 18.3864 8.28887L14.7333 12.9858M5.87505 3.9L12 12L18.125 3.9M15.0936 13.318C16.8021 15.0754 16.8021 17.9246 15.0936 19.682C13.3851 21.4393 10.615 21.4393 8.9064 19.682C7.19786 17.9246 7.19786 15.0754 8.9064 13.318C10.6149 11.5607 13.385 11.5607 15.0936 13.318Z" stroke="#4F4F4F" stroke-width="1.4" stroke-linecap="round" stroke-linejoin="round"/>
</g>
</g>
</svg>
