<svg width="24" height="24" viewBox="0 0 24 24" fill="none" xmlns="http://www.w3.org/2000/svg">
<g id="Navigation/Card-Active">
<g id="card / active">
<g id="icon / card / active">
<g id="Rectangle 354">
<path d="M3 7C3 6.44772 3.44772 6 4 6H20C20.5523 6 21 6.44772 21 7V9.5V17C21 17.5523 20.5523 18 20 18H4C3.44772 18 3 17.5523 3 17V9.5V7Z" fill="#4F4F4F" fill-opacity="0.4"/>
<path d="M3 9.5V17C3 17.5523 3.44772 18 4 18H20C20.5523 18 21 17.5523 21 17V9.5M3 9.5V7C3 6.44772 3.44772 6 4 6H20C20.5523 6 21 6.44772 21 7V9.5M3 9.5H21" stroke="#4F4F4F" stroke-width="1.5" stroke-linejoin="round"/>
</g>
<path id="Vector 8" d="M15 15H18" stroke="white" stroke-width="1.5" stroke-linecap="round"/>
</g>
</g>
</g>
</svg>
