<svg width="24" height="24" viewBox="0 0 24 24" fill="none" xmlns="http://www.w3.org/2000/svg">
<g id="Navigation/Coin-Active">
<g id="coin / active">
<path id="Vector" d="M12.5 2C10.6211 2 8.78435 2.55717 7.22209 3.60104C5.65982 4.64491 4.44218 6.12861 3.72315 7.86451C3.00412 9.6004 2.81598 11.5105 3.18254 13.3534C3.5491 15.1962 4.45389 16.8889 5.78249 18.2175C7.11109 19.5461 8.80383 20.4509 10.6466 20.8175C12.4895 21.184 14.3996 20.9959 16.1355 20.2768C17.8714 19.5578 19.3551 18.3402 20.399 16.7779C21.4428 15.2156 22 13.3789 22 11.5C22 8.98044 20.9991 6.56408 19.2175 4.78249C17.4359 3.00089 15.0196 2 12.5 2Z" fill="#4F4F4F"/>
<path id="Vector_2" d="M15.0909 8.92544H11.6363C11.4073 8.92544 11.1876 9.01643 11.0256 9.1784C10.8637 9.34036 10.7727 9.56003 10.7727 9.78908C10.7727 10.0181 10.8637 10.2378 11.0256 10.3998C11.1876 10.5617 11.4073 10.6527 11.6363 10.6527H13.3636C14.0507 10.6527 14.7098 10.9257 15.1956 11.4116C15.6815 11.8975 15.9545 12.5565 15.9545 13.2436C15.9545 13.9308 15.6815 14.5898 15.1956 15.0757C14.7098 15.5616 14.0507 15.8345 13.3636 15.8345V16.6982C13.3636 16.9272 13.2726 17.1469 13.1106 17.3089C12.9487 17.4708 12.729 17.5618 12.5 17.5618C12.2709 17.5618 12.0512 17.4708 11.8893 17.3089C11.7273 17.1469 11.6363 16.9272 11.6363 16.6982V15.8345H9.90905C9.68 15.8345 9.46033 15.7435 9.29836 15.5816C9.1364 15.4196 9.04541 15.1999 9.04541 14.9709C9.04541 14.7418 9.1364 14.5222 9.29836 14.3602C9.46033 14.1983 9.68 14.1073 9.90905 14.1073H13.3636C13.5926 14.1073 13.8123 14.0163 13.9743 13.8543C14.1362 13.6923 14.2272 13.4727 14.2272 13.2436C14.2272 13.0146 14.1362 12.7949 13.9743 12.6329C13.8123 12.471 13.5926 12.38 13.3636 12.38H11.6363C10.9492 12.38 10.2902 12.107 9.80427 11.6211C9.31838 11.1352 9.04541 10.4762 9.04541 9.78908C9.04541 9.10193 9.31838 8.44292 9.80427 7.95703C10.2902 7.47114 10.9492 7.19817 11.6363 7.19817V6.33454C11.6363 6.10549 11.7273 5.88582 11.8893 5.72385C12.3778 5.23531 12.9071 5.52029 13.1106 5.72385C13.2726 5.88582 13.3636 6.10549 13.3636 6.33454V7.19817H15.0909C15.3199 7.19817 15.5396 7.28916 15.7015 7.45113C15.8635 7.61309 15.9545 7.83276 15.9545 8.06181C15.9545 8.29086 15.8635 8.51053 15.7015 8.67249C15.5396 8.83445 15.3199 8.92544 15.0909 8.92544Z" fill="white"/>
</g>
</g>
</svg>
