<svg width="24" height="24" viewBox="0 0 24 24" fill="none" xmlns="http://www.w3.org/2000/svg">
<g id="Download">
<path id="Union" fill-rule="evenodd" clip-rule="evenodd" d="M21 14C21.5523 14 22 14.4477 22 15V19C22 19.7957 21.6839 20.5587 21.1213 21.1213C20.5587 21.6839 19.7957 22 19 22H5C4.20435 22 3.44129 21.6839 2.87868 21.1213C2.31607 20.5587 2 19.7957 2 19V15C2 14.4477 2.44772 14 3 14C3.55228 14 4 14.4477 4 15V19C4 19.2652 4.10536 19.5196 4.29289 19.7071C4.48043 19.8946 4.73479 20 5 20H19C19.2652 20 19.5196 19.8946 19.7071 19.7071C19.8946 19.5196 20 19.2652 20 19V15C20 14.4477 20.4477 14 21 14ZM17.7071 9.29289C18.0976 9.68342 18.0976 10.3166 17.7071 10.7071L12.7078 15.7064C12.7054 15.7088 12.703 15.7112 12.7005 15.7136C12.5208 15.8901 12.2746 15.9992 12.003 16C12.002 16 12.001 16 12 16C11.999 16 11.998 16 11.997 16C11.8625 15.9996 11.7343 15.9727 11.6172 15.9241C11.502 15.8764 11.3938 15.8063 11.2995 15.7136C11.297 15.7112 11.2946 15.7088 11.2922 15.7064L6.29289 10.7071C5.90237 10.3166 5.90237 9.68342 6.29289 9.29289C6.68342 8.90237 7.31658 8.90237 7.70711 9.29289L11 12.5858V3C11 2.44772 11.4477 2 12 2C12.5523 2 13 2.44772 13 3V12.5858L16.2929 9.29289C16.6834 8.90237 17.3166 8.90237 17.7071 9.29289Z" fill="#656565"/>
</g>
</svg>
