<svg width="24" height="24" viewBox="0 0 24 24" fill="none" xmlns="http://www.w3.org/2000/svg">
<g id="Money">
<path id="Vector" d="M2 12C2 7.83371 2 5.75042 3.06102 4.29008C3.40368 3.81845 3.81844 3.40367 4.29008 3.06102C5.75045 2.00002 7.83363 2 12 2C16.1664 2 18.2496 2.00002 19.7099 3.06102C20.1816 3.40367 20.5963 3.81845 20.939 4.29008C22 5.75042 22 7.83371 22 12C22 16.1663 22 18.2496 20.939 19.7099C20.5963 20.1815 20.1816 20.5963 19.7099 20.939C18.2496 22 16.1664 22 12 22C7.83363 22 5.75045 22 4.29008 20.939C3.81844 20.5963 3.40368 20.1815 3.06102 19.7099C2 18.2496 2 16.1663 2 12Z" stroke="#656565" stroke-width="1.5"/>
<path id="Vector_2" d="M11.25 19C11.25 19.4142 11.5857 19.75 11.9999 19.75C12.4142 19.75 12.75 19.4142 12.75 19L11.25 19ZM12.75 5C12.75 4.58579 12.4142 4.25 12 4.25C11.5857 4.25 11.25 4.58579 11.25 5H12.75ZM14.3459 8.44372C14.5486 8.80496 15.0057 8.93351 15.367 8.73083C15.7282 8.52816 15.8568 8.07101 15.6541 7.70977L14.3459 8.44372ZM14.635 7.42625L15.2891 7.05927V7.05927L14.635 7.42625ZM11.1545 11.68L10.889 12.3814H10.889L11.1545 11.68ZM12.8455 12.32L13.111 11.6186H13.111L12.8455 12.32ZM9.36496 16.5738L8.71088 16.9407L8.71088 16.9407L9.36496 16.5738ZM9.65409 15.5563C9.45141 15.195 8.99427 15.0665 8.63302 15.2692C8.27178 15.4718 8.14324 15.929 8.34591 16.2902L9.65409 15.5563ZM13.2903 17.6561L12.9072 17.0113L13.2903 17.6561ZM10.7097 6.34391L11.0928 6.9887V6.9887L10.7097 6.34391ZM15.6541 7.70977L15.2891 7.05927L13.981 7.79323L14.3459 8.44372L15.6541 7.70977ZM10.019 16.2068L9.65409 15.5563L8.34591 16.2902L8.71088 16.9407L10.019 16.2068ZM12.58 13.0215C14.2705 13.6613 14.4849 16.074 12.9072 17.0113L13.6734 18.3009C16.3155 16.7311 15.9936 12.7097 13.111 11.6186L12.58 13.0215ZM10.3266 5.69912C7.68449 7.26887 8.00642 11.2903 10.889 12.3814L11.42 10.9785C9.72955 10.3387 9.51515 7.92601 11.0928 6.9887L10.3266 5.69912ZM15.2891 7.05927C14.5901 5.81332 13.2855 5.13351 11.9612 5.20197L12.0387 6.69997C12.7999 6.66062 13.5642 7.05039 13.981 7.79323L15.2891 7.05927ZM11.9612 5.20197C11.4013 5.23091 10.841 5.39355 10.3266 5.69912L11.0928 6.9887C11.3946 6.80939 11.718 6.71654 12.0387 6.69997L11.9612 5.20197ZM12.75 5.95097V5H11.25V5.95097H12.75ZM12.75 12L12.75 5.95096L11.25 5.95097L11.25 12L12.75 12ZM10.889 12.3814L11.7345 12.7014L12.2655 11.2986L11.42 10.9785L10.889 12.3814ZM11.7345 12.7014L12.58 13.0215L13.111 11.6186L12.2655 11.2986L11.7345 12.7014ZM12.75 19L12.75 18.049L11.25 18.049L11.25 19L12.75 19ZM12.75 18.049L12.75 12L11.25 12L11.25 18.049L12.75 18.049ZM12.9072 17.0113C12.6054 17.1906 12.282 17.2835 11.9613 17.3L12.0387 18.798C12.5987 18.7691 13.159 18.6065 13.6734 18.3009L12.9072 17.0113ZM11.9613 17.3C11.2 17.3394 10.4358 16.9496 10.019 16.2068L8.71088 16.9407C9.4099 18.1866 10.7144 18.8664 12.0387 18.798L11.9613 17.3Z" fill="#656565"/>
</g>
</svg>
