<svg width="24" height="24" viewBox="0 0 24 24" fill="none" xmlns="http://www.w3.org/2000/svg">
<g id="Navigation/Notice-Active">
<g id="notice / active">
<g id="icon / notice / active">
<g id="Union">
<mask id="path-1-inside-1_1216_8522" fill="white">
<path fill-rule="evenodd" clip-rule="evenodd" d="M3.71783 9.47354C3.29225 9.59871 3 9.9893 3 10.4329V12.9364C3 13.38 3.29225 13.7706 3.71783 13.8958L5.25 14.3464V15.9889C5.25 17.4509 6.60202 18.4347 8 18.4347C9.39798 18.4347 10.75 17.4509 10.75 15.9889V15.9641L18.7178 18.3076C19.3583 18.4959 20 18.0158 20 17.3482V6.02114C20 5.35354 19.3583 4.8734 18.7178 5.06178L3.71783 9.47354ZM9.25 15.5229L6.75 14.7876V15.9889C6.75 16.4 7.18884 16.9347 8 16.9347C8.81116 16.9347 9.25 16.4 9.25 15.9889V15.5229Z"/>
</mask>
<path fill-rule="evenodd" clip-rule="evenodd" d="M3.71783 9.47354C3.29225 9.59871 3 9.9893 3 10.4329V12.9364C3 13.38 3.29225 13.7706 3.71783 13.8958L5.25 14.3464V15.9889C5.25 17.4509 6.60202 18.4347 8 18.4347C9.39798 18.4347 10.75 17.4509 10.75 15.9889V15.9641L18.7178 18.3076C19.3583 18.4959 20 18.0158 20 17.3482V6.02114C20 5.35354 19.3583 4.8734 18.7178 5.06178L3.71783 9.47354ZM9.25 15.5229L6.75 14.7876V15.9889C6.75 16.4 7.18884 16.9347 8 16.9347C8.81116 16.9347 9.25 16.4 9.25 15.9889V15.5229Z" fill="#4F4F4F"/>
<path d="M3.71783 9.47354L3.29458 8.03449L3.29458 8.03449L3.71783 9.47354ZM3.71783 13.8958L4.14108 12.4567L4.14108 12.4567L3.71783 13.8958ZM5.25 14.3464H6.75V13.2241L5.67325 12.9074L5.25 14.3464ZM10.75 15.9641L11.1732 14.525L9.25 13.9594V15.9641H10.75ZM18.7178 18.3076L19.1411 16.8685L18.7178 18.3076ZM18.7178 5.06178L18.2946 3.62273V3.62273L18.7178 5.06178ZM9.25 15.5229H10.75V14.4005L9.67325 14.0839L9.25 15.5229ZM6.75 14.7876L7.17325 13.3486L5.25 12.7829V14.7876H6.75ZM4.5 10.4329C4.5 10.6547 4.35387 10.85 4.14108 10.9126L3.29458 8.03449C2.23063 8.34742 1.5 9.32389 1.5 10.4329H4.5ZM4.5 12.9364V10.4329H1.5V12.9364H4.5ZM4.14108 12.4567C4.35387 12.5193 4.5 12.7146 4.5 12.9364H1.5C1.5 14.0455 2.23063 15.0219 3.29459 15.3348L4.14108 12.4567ZM5.67325 12.9074L4.14108 12.4567L3.29458 15.3348L4.82675 15.7855L5.67325 12.9074ZM3.75 14.3464V15.9889H6.75V14.3464H3.75ZM3.75 15.9889C3.75 18.5197 6.03639 19.9347 8 19.9347V16.9347C7.63928 16.9347 7.29563 16.8039 7.06287 16.6093C6.84652 16.4284 6.75 16.2207 6.75 15.9889H3.75ZM8 19.9347C9.96361 19.9347 12.25 18.5197 12.25 15.9889H9.25C9.25 16.2207 9.15348 16.4284 8.93713 16.6093C8.70437 16.8039 8.36072 16.9347 8 16.9347V19.9347ZM12.25 15.9889V15.9641H9.25V15.9889H12.25ZM19.1411 16.8685L11.1732 14.525L10.3268 17.4031L18.2946 19.7466L19.1411 16.8685ZM18.5 17.3482C18.5 17.0144 18.8208 16.7743 19.1411 16.8685L18.2946 19.7466C19.8958 20.2176 21.5 19.0172 21.5 17.3482H18.5ZM18.5 6.02114V17.3482H21.5V6.02114H18.5ZM19.1411 6.50083C18.8208 6.59501 18.5 6.35495 18.5 6.02114H21.5C21.5 4.35212 19.8958 3.15179 18.2946 3.62273L19.1411 6.50083ZM4.14108 10.9126L19.1411 6.50083L18.2946 3.62273L3.29458 8.03449L4.14108 10.9126ZM9.67325 14.0839L7.17325 13.3486L6.32675 16.2267L8.82675 16.962L9.67325 14.0839ZM8.25 15.9889V14.7876H5.25V15.9889H8.25ZM8 15.4347C7.93553 15.4347 7.98053 15.4187 8.05959 15.488C8.09412 15.5182 8.13673 15.5668 8.17363 15.6408C8.20894 15.7116 8.25 15.8289 8.25 15.9889H5.25C5.25 17.4079 6.55211 18.4347 8 18.4347V15.4347ZM7.75 15.9889C7.75 15.8289 7.79106 15.7116 7.82637 15.6408C7.86327 15.5668 7.90588 15.5182 7.94041 15.488C8.01947 15.4187 8.06447 15.4347 8 15.4347V18.4347C9.44789 18.4347 10.75 17.4079 10.75 15.9889H7.75ZM7.75 15.5229V15.9889H10.75V15.5229H7.75Z" fill="#4F4F4F" mask="url(#path-1-inside-1_1216_8522)"/>
</g>
</g>
</g>
</g>
</svg>
