<svg width="24" height="24" viewBox="0 0 24 24" fill="none" xmlns="http://www.w3.org/2000/svg">
<g id="Circle-check">
<g id="basic / circle_checked">
<path fill-rule="evenodd" clip-rule="evenodd" d="M2 12C2 17.5228 6.47715 22 12 22C17.5228 22 22 17.5228 22 12C22 6.47715 17.5228 2 12 2C6.47715 2 2 6.47715 2 12ZM20.1818 12C20.1818 16.5187 16.5187 20.1818 12 20.1818C7.48131 20.1818 3.81818 16.5187 3.81818 12C3.81818 7.48131 7.48131 3.81818 12 3.81818C16.5187 3.81818 20.1818 7.48131 20.1818 12Z" fill="#4F4F4F"/>
<path fill-rule="evenodd" clip-rule="evenodd" d="M10.5 13.2322L15.0858 8.64645C15.4763 8.25592 16.1095 8.25592 16.5 8.64645C16.8905 9.03697 16.8905 9.67014 16.5 10.0607L10.5 16.0607L7.5 13.0607C7.10948 12.6701 7.10948 12.037 7.5 11.6464C7.89052 11.2559 8.52369 11.2559 8.91421 11.6464L10.5 13.2322Z" fill="#4F4F4F"/>
</g>
</g>
</svg>
