<svg width="20" height="26" viewBox="0 0 20 26" fill="none" xmlns="http://www.w3.org/2000/svg">
<g id="Promotion">
<g id="Award 3">
<g id="Vector">
<path d="M19 9.72727C19 11.9406 18.1503 13.9615 16.75 15.5C15.1009 17.3118 12.6881 18.4545 10 18.4545C7.31219 18.4545 4.89956 17.312 3.25045 15.5005C1.84986 13.9619 1 11.9408 1 9.72727C1 4.90733 5.02944 1 10 1C14.9706 1 19 4.90733 19 9.72727Z" fill="#4F4F4F"/>
<path d="M13.5663 23.5211L13.0949 24.1044H13.0949L13.5663 23.5211ZM12.5102 22.6675L12.9816 22.0842L12.5102 22.6675ZM7.4898 22.6675L7.01835 22.0842H7.01835L7.4898 22.6675ZM6.43367 23.5211L6.90512 24.1044H6.90512L6.43367 23.5211ZM16.7496 15.5228L15.9997 15.5097L15.9996 15.517L15.9996 15.5244L16.7496 15.5228ZM16.75 15.5L16.1954 14.9951L16.75 15.5ZM3.25045 15.5005L3.80506 14.9956L3.25045 15.5005ZM1.75 9.72727C1.75 5.34313 5.42173 1.75 10 1.75V0.25C4.63715 0.25 0.25 4.47153 0.25 9.72727H1.75ZM10 1.75C14.5783 1.75 18.25 5.34313 18.25 9.72727H19.75C19.75 4.47153 15.3629 0.25 10 0.25V1.75ZM16 16.0922V22.1404H17.5V16.0922H16ZM4 22.1404V16.0922H2.5V22.1404H4ZM14.0378 22.9378L12.9816 22.0842L12.0387 23.2508L13.0949 24.1044L14.0378 22.9378ZM7.01835 22.0842L5.96222 22.9378L6.90512 24.1044L7.96125 23.2508L7.01835 22.0842ZM12.9816 22.0842C12.3974 21.612 11.9069 21.2138 11.4699 20.9417C11.0145 20.6581 10.5478 20.4653 10 20.4653V21.9653C10.1657 21.9653 10.3551 22.0145 10.677 22.215C11.0173 22.4269 11.4252 22.7549 12.0387 23.2508L12.9816 22.0842ZM7.96125 23.2508C8.57483 22.7549 8.98272 22.4269 9.32304 22.215C9.64493 22.0145 9.83434 21.9653 10 21.9653V20.4653C9.45224 20.4653 8.98547 20.6581 8.53007 20.9417C8.09312 21.2138 7.60262 21.612 7.01835 22.0842L7.96125 23.2508ZM2.5 22.1404C2.5 22.9667 2.49784 23.6766 2.57886 24.2043C2.65953 24.7298 2.86327 25.3498 3.51293 25.6315L4.10977 24.2554C4.19808 24.2937 4.12114 24.3653 4.06148 23.9767C4.00216 23.5903 4 23.0205 4 22.1404H2.5ZM5.96222 22.9378C5.25603 23.5086 4.78993 23.883 4.43305 24.0962C4.06691 24.315 4.04061 24.2254 4.10977 24.2554L3.51293 25.6315C4.14345 25.905 4.74132 25.6594 5.2025 25.3838C5.67295 25.1027 6.23734 24.6442 6.90512 24.1044L5.96222 22.9378ZM16 22.1404C16 23.0205 15.9978 23.5903 15.9385 23.9767C15.8789 24.3653 15.8019 24.2937 15.8902 24.2554L16.4871 25.6315C17.1367 25.3498 17.3405 24.7298 17.4211 24.2043C17.5022 23.6766 17.5 22.9667 17.5 22.1404H16ZM13.0949 24.1044C13.7627 24.6442 14.3271 25.1027 14.7975 25.3838C15.2587 25.6594 15.8566 25.905 16.4871 25.6315L15.8902 24.2554C15.9594 24.2254 15.9331 24.315 15.5669 24.0962C15.2101 23.883 14.744 23.5086 14.0378 22.9378L13.0949 24.1044ZM17.5 16.0922C17.5 15.891 17.5 15.7007 17.4996 15.5211L15.9996 15.5244C16 15.7021 16 15.8906 16 16.0922H17.5ZM18.25 9.72727C18.25 11.744 17.4768 13.5873 16.1954 14.9951L17.3046 16.0048C18.8238 14.3357 19.75 12.1372 19.75 9.72727H18.25ZM16.1954 14.9951C14.6852 16.6543 12.4722 17.7045 10 17.7045V19.2045C12.9039 19.2045 15.5166 17.9693 17.3046 16.0048L16.1954 14.9951ZM17.4995 15.5359L17.4999 15.5131L16.0001 15.4869L15.9997 15.5097L17.4995 15.5359ZM4 16.0922C4 15.8822 4 15.6863 4.00045 15.5023L2.50045 15.4987C2.5 15.6849 2.5 15.8826 2.5 16.0922H4ZM10 17.7045C7.528 17.7045 5.31523 16.6545 3.80506 14.9956L2.69584 16.0054C4.4839 17.9695 7.09637 19.2045 10 19.2045V17.7045ZM3.80506 14.9956C2.52337 13.5877 1.75 11.7442 1.75 9.72727H0.25C0.25 12.1375 1.17635 14.3362 2.69584 16.0054L3.80506 14.9956Z" fill="#4F4F4F"/>
</g>
</g>
<g id="Award 4">
<path id="Vector_2" d="M8.41287 6.14702C8.91242 4.61766 11.0875 4.61766 11.5871 6.14702C11.8105 6.83096 12.4512 7.29403 13.1741 7.29403C14.7907 7.29403 15.4629 9.35176 14.155 10.297C13.5701 10.7197 13.3254 11.4689 13.5488 12.1529C14.0484 13.6822 12.2887 14.954 10.9808 14.0088C10.396 13.5861 9.60397 13.5861 9.01908 14.0088C7.71125 14.954 5.95156 13.6822 6.45111 12.1529C6.67452 11.4689 6.42978 10.7197 5.8449 10.297C4.53706 9.35176 5.2092 7.29403 6.82578 7.29403C7.54873 7.29403 8.18946 6.83096 8.41287 6.14702Z" fill="white"/>
</g>
</g>
</svg>
