<svg width="24" height="24" viewBox="0 0 24 24" fill="none" xmlns="http://www.w3.org/2000/svg">
<g id="Navigation/Reservation-Inactive">
<g id="sandglass / inactive">
<g id="icon / sandglass / inactive">
<path id="Rectangle 348" d="M6.73929 4.60335C6.89754 4.23713 7.25832 4 7.65726 4H16.3427C16.7417 4 17.1025 4.23713 17.2607 4.60335L17.7624 5.7645C17.9087 6.10299 17.8568 6.49451 17.6274 6.78322L14.2039 11.0922C13.9145 11.4564 13.9145 11.9721 14.2039 12.3364L17.6274 16.6454C17.8568 16.9341 17.9087 17.3256 17.7624 17.6641L17.2607 18.8252C17.1025 19.1914 16.7417 19.4286 16.3427 19.4286H7.65726C7.25832 19.4286 6.89754 19.1914 6.73929 18.8252L6.23756 17.6641C6.0913 17.3256 6.14319 16.9341 6.37257 16.6454L9.79609 12.3364C10.0855 11.9721 10.0855 11.4564 9.79609 11.0922L6.37257 6.78322C6.14319 6.49451 6.0913 6.10299 6.23756 5.7645L6.73929 4.60335Z" stroke="#4F4F4F" stroke-width="1.5"/>
</g>
</g>
</g>
</svg>
