<svg width="24" height="24" viewBox="0 0 24 24" fill="none" xmlns="http://www.w3.org/2000/svg">
<g id="Navigation/Reservation-Active">
<g id="sandglass / active">
<g id="Group 797">
<path id="Rectangle 349" opacity="0.8" d="M7.60386 19.429H16.3961C16.8042 19.429 17.1713 19.1811 17.3237 18.8026L17.7909 17.6426C17.9208 17.3201 17.8739 16.9533 17.667 16.6739L14.3441 12.1871C14.1399 11.9114 14.0913 11.5503 14.2154 11.2304L14.8292 9.64769C15.0833 8.99229 14.5998 8.28613 13.8968 8.28613H10.1032C9.40025 8.28613 8.91669 8.99229 9.17085 9.64769L9.78462 11.2304C9.90866 11.5503 9.86006 11.9114 9.65588 12.1871L6.33304 16.6739C6.12611 16.9533 6.07917 17.3201 6.20907 17.6426L6.67628 18.8026C6.82872 19.1811 7.19583 19.429 7.60386 19.429Z" fill="#4F4F4F"/>
<path id="Rectangle 348" d="M6.73929 4.60335C6.89754 4.23713 7.25832 4 7.65726 4H16.3427C16.7417 4 17.1025 4.23713 17.2607 4.60335L17.7624 5.7645C17.9087 6.10299 17.8568 6.49451 17.6274 6.78322L14.2039 11.0922C13.9145 11.4564 13.9145 11.9721 14.2039 12.3364L17.6274 16.6454C17.8568 16.9341 17.9087 17.3256 17.7624 17.6641L17.2607 18.8252C17.1025 19.1914 16.7417 19.4286 16.3427 19.4286H7.65726C7.25832 19.4286 6.89754 19.1914 6.73929 18.8252L6.23756 17.6641C6.0913 17.3256 6.14319 16.9341 6.37257 16.6454L9.79609 12.3364C10.0855 11.9721 10.0855 11.4564 9.79609 11.0922L6.37257 6.78322C6.14319 6.49451 6.0913 6.10299 6.23756 5.7645L6.73929 4.60335Z" stroke="#4F4F4F" stroke-width="1.5"/>
</g>
</g>
</g>
</svg>
