<svg width="24" height="24" viewBox="0 0 24 24" fill="none" xmlns="http://www.w3.org/2000/svg">
<g id="Navigation/Stethoscope-Active">
<g id="session / active">
<g id="icon / session / active">
<path id="Union" fill-rule="evenodd" clip-rule="evenodd" d="M3 4V11.2042H4.5V6H6V4H4.5H4H3ZM12.6384 6V11.2042H14.1384V4H13H12.6384H11V6H12.6384ZM8.56921 14.6566C6.22209 14.6566 4.5 13.0177 4.5 11.2042H3C3 13.7792 5.14945 15.7704 7.78034 16.1065C8.35953 18.5916 10.5581 20.4528 13.2003 20.4528C16.2878 20.4528 18.7695 17.9115 18.7695 14.8029V13.6685C19.6831 13.3662 20.3422 12.5053 20.3422 11.4904C20.3422 10.2236 19.3153 9.19666 18.0485 9.19666C16.7817 9.19666 15.7548 10.2236 15.7548 11.4904C15.7548 12.4837 16.3862 13.3295 17.2695 13.6484V14.8029C17.2695 17.1066 15.436 18.9528 13.2003 18.9528C11.4082 18.9528 9.87451 17.7665 9.33647 16.1092C11.9772 15.7813 14.1384 13.7862 14.1384 11.2042H12.6384C12.6384 13.0177 10.9163 14.6566 8.56921 14.6566ZM17.2548 11.4904C17.2548 11.052 17.6102 10.6967 18.0485 10.6967C18.4869 10.6967 18.8422 11.052 18.8422 11.4904C18.8422 11.9287 18.4869 12.2841 18.0485 12.2841C17.6102 12.2841 17.2548 11.9287 17.2548 11.4904Z" fill="#4F4F4F"/>
<circle id="Ellipse 22" cx="18.0486" cy="11.49" r="1.54371" fill="#4F4F4F" stroke="#4F4F4F" stroke-width="1.5"/>
</g>
</g>
</g>
</svg>
