<svg width="24" height="25" viewBox="0 0 24 25" fill="none" xmlns="http://www.w3.org/2000/svg">
<g id="&#240;&#159;&#166;&#134; icon &#34;Apple&#34;">
<g id="Group 38052">
<path id="Vector" d="M21.3952 17.6361C20.882 18.7803 20.6296 19.2935 19.965 20.303C19.0396 21.7164 17.7272 23.4747 16.1119 23.4915C14.6733 23.5084 14.3031 22.5577 12.3513 22.5661C10.3995 22.5745 9.98722 23.5084 8.5486 23.5C6.92489 23.4831 5.68818 21.8931 4.76276 20.4881C2.16314 16.5256 1.89393 11.89 3.49239 9.42503C4.62815 7.67513 6.42011 6.64874 8.11112 6.64874C9.80213 6.64874 10.9042 7.591 12.326 7.591C13.7478 7.591 14.5386 6.64874 16.5325 6.64874C18.03 6.64874 19.6201 7.4648 20.7558 8.87818C17.0457 10.9141 17.643 16.2143 21.3952 17.6361Z" fill="black"/>
<path id="Vector_2" d="M15.0257 5.06711C15.7492 4.14168 16.296 2.83766 16.0941 1.5C14.9163 1.58413 13.5366 2.33289 12.7289 3.30879C11.997 4.19216 11.3913 5.51299 11.6268 6.79177C12.914 6.83383 14.2433 6.05984 15.0173 5.07552L15.0257 5.06711Z" fill="black"/>
</g>
</g>
</svg>
