<svg width="24" height="24" viewBox="0 0 24 24" fill="none" xmlns="http://www.w3.org/2000/svg">
<path fill-rule="evenodd" clip-rule="evenodd" d="M5 3.5H19C19.8284 3.5 20.5 4.17157 20.5 5V19C20.5 19.8284 19.8284 20.5 19 20.5H5C4.17157 20.5 3.5 19.8284 3.5 19V5C3.5 4.17157 4.17157 3.5 5 3.5ZM2 5C2 3.34315 3.34315 2 5 2H19C20.6569 2 22 3.34315 22 5V19C22 20.6569 20.6569 22 19 22H5C3.34315 22 2 20.6569 2 19V5ZM17.197 9.03033C17.4899 8.73744 17.4899 8.26256 17.197 7.96967C16.9041 7.67678 16.4292 7.67678 16.1363 7.96967L10.25 13.856L7.86366 11.4697C7.57077 11.1768 7.0959 11.1768 6.803 11.4697C6.51011 11.7626 6.51011 12.2374 6.803 12.5303L9.71967 15.447C10.0126 15.7399 10.4874 15.7399 10.7803 15.447L17.197 9.03033Z" fill="#4F4F4F"/>
</svg>
