<svg width="24" height="24" viewBox="0 0 24 24" fill="none" xmlns="http://www.w3.org/2000/svg">
<g id="Navigation/Coin-Inactive">
<path id="coin / inactive" d="M11.6364 8.90909H15.0909C15.32 8.90909 15.5396 8.8181 15.7016 8.65614C15.8636 8.49417 15.9545 8.2745 15.9545 8.04545C15.9545 7.8164 15.8636 7.59673 15.7016 7.43477C15.5396 7.27281 15.32 7.18182 15.0909 7.18182H13.3636V6.31818C13.3636 6.08913 13.2726 5.86946 13.1107 5.7075C12.9487 5.54553 12.7291 5.45454 12.5 5.45454C12.271 5.45454 12.0513 5.54553 11.8893 5.7075C11.7274 5.86946 11.6364 6.08913 11.6364 6.31818V7.18182C10.9492 7.18182 10.2902 7.45479 9.80432 7.94068C9.31843 8.42657 9.04546 9.08557 9.04546 9.77273C9.04546 10.4599 9.31843 11.1189 9.80432 11.6048C10.2902 12.0907 10.9492 12.3636 11.6364 12.3636H13.3636C13.5927 12.3636 13.8124 12.4546 13.9743 12.6166C14.1363 12.7786 14.2273 12.9982 14.2273 13.2273C14.2273 13.4563 14.1363 13.676 13.9743 13.838C13.8124 13.9999 13.5927 14.0909 13.3636 14.0909H9.90909C9.68004 14.0909 9.46037 14.1819 9.29841 14.3439C9.13645 14.5058 9.04546 14.7255 9.04546 14.9545C9.04546 15.1836 9.13645 15.4033 9.29841 15.5652C9.46037 15.7272 9.68004 15.8182 9.90909 15.8182H11.6364V16.6818C11.6364 16.9109 11.7274 17.1305 11.8893 17.2925C12.0513 17.4545 12.271 17.5455 12.5 17.5455C12.7291 17.5455 12.9487 17.4545 13.1107 17.2925C13.2726 17.1305 13.3636 16.9109 13.3636 16.6818V15.8182C14.0508 15.8182 14.7098 15.5452 15.1957 15.0593C15.6816 14.5734 15.9545 13.9144 15.9545 13.2273C15.9545 12.5401 15.6816 11.8811 15.1957 11.3952C14.7098 10.9093 14.0508 10.6364 13.3636 10.6364H11.6364C11.4073 10.6364 11.1876 10.5454 11.0257 10.3834C10.8637 10.2214 10.7727 10.0018 10.7727 9.77273C10.7727 9.54368 10.8637 9.32401 11.0257 9.16204C11.1876 9.00008 11.4073 8.90909 11.6364 8.90909ZM12.5 2C10.6211 2 8.78435 2.55717 7.22209 3.60104C5.65982 4.64491 4.44218 6.12861 3.72315 7.86451C3.00412 9.6004 2.81598 11.5105 3.18254 13.3534C3.5491 15.1962 4.45389 16.8889 5.78249 18.2175C7.11109 19.5461 8.80383 20.4509 10.6466 20.8175C12.4895 21.184 14.3996 20.9959 16.1355 20.2769C17.8714 19.5578 19.3551 18.3402 20.399 16.7779C21.4428 15.2156 22 13.3789 22 11.5C22 8.98044 20.9991 6.56408 19.2175 4.78249C17.4359 3.00089 15.0196 2 12.5 2ZM12.5 19.2727C10.9627 19.2727 9.45992 18.8169 8.18171 17.9628C6.90349 17.1087 5.90724 15.8948 5.31894 14.4745C4.73064 13.0542 4.57671 11.4914 4.87663 9.98361C5.17654 8.47585 5.91682 7.09089 7.00385 6.00385C8.09089 4.91682 9.47586 4.17654 10.9836 3.87662C12.4914 3.57671 14.0542 3.73064 15.4745 4.31894C16.8948 4.90724 18.1087 5.90349 18.9628 7.1817C19.8169 8.45992 20.2727 9.9627 20.2727 11.5C20.2727 13.5615 19.4538 15.5385 17.9961 16.9961C16.5385 18.4538 14.5615 19.2727 12.5 19.2727Z" fill="#4F4F4F"/>
</g>
</svg>
