<svg width="24" height="24" viewBox="0 0 24 24" fill="none" xmlns="http://www.w3.org/2000/svg">
<g id="Navigation/Home-Active">
<g id="home / active">
<g id="icon / home / active">
<g id="Vector">
<path d="M12 13.8419C10.5272 13.8419 9.33333 15.0235 9.33333 16.4811V20L7.55556 20C5.59188 20 4 18.4245 4 16.4811V10.2333C4 9.73077 4.21715 9.25219 4.59669 8.9183L10.8189 3.44442C11.4925 2.85186 12.5075 2.85186 13.1811 3.44442L19.4033 8.9183C19.7828 9.25219 20 9.73077 20 10.2333V16.4811C20 18.4245 18.4081 20 16.4444 20L14.6667 20V16.4811C14.6667 15.0235 13.4728 13.8419 12 13.8419Z" fill="#4F4F4F"/>
<path d="M9.33333 20L9.33334 20.75C9.74755 20.75 10.0833 20.4142 10.0833 20H9.33333ZM14.6667 20H13.9167C13.9167 20.4142 14.2525 20.75 14.6667 20.75L14.6667 20ZM19.4033 8.9183L18.9079 9.48142L18.9079 9.48142L19.4033 8.9183ZM13.1811 3.44442L13.6765 2.88131V2.88131L13.1811 3.44442ZM4.59669 8.9183L5.09207 9.48142L5.09207 9.48142L4.59669 8.9183ZM10.8189 3.44442L10.3235 2.88131V2.88131L10.8189 3.44442ZM16.4444 20L16.4444 20.75H16.4444V20ZM7.55556 20V20.75H7.55556L7.55556 20ZM10.0833 16.4811C10.0833 15.445 10.9341 14.5919 12 14.5919V13.0919C10.1204 13.0919 8.58333 14.602 8.58333 16.4811H10.0833ZM12 14.5919C13.0659 14.5919 13.9167 15.445 13.9167 16.4811H15.4167C15.4167 14.602 13.8796 13.0919 12 13.0919V14.5919ZM8.58333 16.4811V20H10.0833V16.4811H8.58333ZM13.9167 16.4811V20H15.4167V16.4811H13.9167ZM19.25 10.2333V16.4811H20.75V10.2333H19.25ZM4.75 16.4811V10.2333H3.25V16.4811H4.75ZM19.8987 8.35519L13.6765 2.88131L12.6857 4.00753L18.9079 9.48142L19.8987 8.35519ZM5.09207 9.48142L11.3143 4.00753L10.3235 2.88131L4.1013 8.35519L5.09207 9.48142ZM16.4444 19.25L14.6667 19.25L14.6667 20.75L16.4444 20.75L16.4444 19.25ZM9.33333 19.25L7.55555 19.25L7.55556 20.75L9.33334 20.75L9.33333 19.25ZM13.6765 2.88131C12.7196 2.03956 11.2804 2.03956 10.3235 2.88131L11.3143 4.00753C11.7046 3.66416 12.2954 3.66416 12.6857 4.00753L13.6765 2.88131ZM4.75 10.2333C4.75 9.94779 4.87331 9.67387 5.09207 9.48142L4.1013 8.35519C3.561 8.83052 3.25 9.51376 3.25 10.2333H4.75ZM20.75 10.2333C20.75 9.51376 20.439 8.83052 19.8987 8.35519L18.9079 9.48142C19.1267 9.67387 19.25 9.94778 19.25 10.2333H20.75ZM3.25 16.4811C3.25 18.846 5.185 20.75 7.55556 20.75V19.25C5.99875 19.25 4.75 18.003 4.75 16.4811H3.25ZM19.25 16.4811C19.25 18.003 18.0013 19.25 16.4444 19.25V20.75C18.815 20.75 20.75 18.846 20.75 16.4811H19.25Z" fill="#4F4F4F"/>
</g>
</g>
</g>
</g>
</svg>
