<svg width="24" height="24" viewBox="0 0 24 24" fill="none" xmlns="http://www.w3.org/2000/svg">
<g id="Lisence">
<path id="Ellipse 36" d="M16 14.4722C17.2275 13.3736 18 11.777 18 10C18 6.68629 15.3137 4 12 4C8.68629 4 6 6.68629 6 10C6 11.777 6.7725 13.3736 8 14.4722M16 14.4722C14.9385 15.4223 13.5367 16 12 16C10.4633 16 9.06151 15.4223 8 14.4722M16 14.4722V19.382C16 20.1253 15.2177 20.6088 14.5528 20.2764L12 19L9.44721 20.2764C8.78231 20.6088 8 20.1253 8 19.382V14.4722" stroke="#4F4F4F" stroke-width="1.5"/>
<circle id="Ellipse 37" cx="12" cy="10" r="2.25" stroke="#4F4F4F" stroke-width="1.5"/>
</g>
</svg>
