<svg width="24" height="24" viewBox="0 0 24 24" fill="none" xmlns="http://www.w3.org/2000/svg">
<g id="Navigation/List-Inactive">
<path id="Icon" d="M19 9.26562H14.3333M19 5H5M19 13.7344H14.3333M19 18H5M6.24444 14.75H9.97778C10.4134 14.75 10.6312 14.75 10.7975 14.6614C10.9439 14.5835 11.0629 14.4592 11.1374 14.3064C11.2222 14.1326 11.2222 13.905 11.2222 13.45V9.55C11.2222 9.09496 11.2222 8.86744 11.1374 8.69363C11.0629 8.54075 10.9439 8.41645 10.7975 8.33856C10.6312 8.25 10.4134 8.25 9.97778 8.25H6.24444C5.80885 8.25 5.59105 8.25 5.42467 8.33856C5.27833 8.41645 5.15934 8.54075 5.08477 8.69363C5 8.86744 5 9.09496 5 9.55V13.45C5 13.905 5 14.1326 5.08477 14.3064C5.15934 14.4592 5.27833 14.5835 5.42467 14.6614C5.59105 14.75 5.80885 14.75 6.24444 14.75Z" stroke="#4F4F4F" stroke-width="1.4" stroke-linecap="round" stroke-linejoin="round"/>
</g>
</svg>
