<svg width="24" height="24" viewBox="0 0 24 24" fill="none" xmlns="http://www.w3.org/2000/svg">
<g id="Circle-help">
<path id="Vector" d="M12 21C16.9706 21 21 16.9706 21 12C21 7.02944 16.9706 3 12 3C7.02944 3 3 7.02944 3 12C3 16.9706 7.02944 21 12 21Z" stroke="#4F4F4F" stroke-width="1.5" stroke-linecap="round" stroke-linejoin="round"/>
<path id="Vector_2" d="M9.08984 8.99959C9.32495 8.33126 9.789 7.7677 10.3998 7.40873C11.0106 7.04975 11.7287 6.91853 12.427 7.0383C13.1253 7.15808 13.7587 7.52112 14.2149 8.06312C14.6712 8.60512 14.9209 9.29112 14.9198 9.99959C14.9198 11.9996 11.9198 12.9996 11.9198 12.9996" stroke="#4F4F4F" stroke-width="1.5" stroke-linecap="round" stroke-linejoin="round"/>
<path id="Vector_3" d="M12 17H12.01" stroke="#4F4F4F" stroke-width="1.5" stroke-linecap="round" stroke-linejoin="round"/>
</g>
</svg>
