<svg width="24" height="24" viewBox="0 0 24 24" fill="none" xmlns="http://www.w3.org/2000/svg">
<path d="M21.3952 17.1361C20.882 18.2803 20.6296 18.7935 19.965 19.803C19.0396 21.2164 17.7272 22.9747 16.1119 22.9915C14.6733 23.0084 14.3031 22.0577 12.3513 22.0661C10.3995 22.0745 9.98722 23.0084 8.5486 23C6.92489 22.9831 5.68818 21.3931 4.76276 19.9881C2.16314 16.0256 1.89393 11.39 3.49239 8.92503C4.62815 7.17513 6.42011 6.14874 8.11112 6.14874C9.80213 6.14874 10.9042 7.091 12.326 7.091C13.7478 7.091 14.5386 6.14874 16.5325 6.14874C18.03 6.14874 19.6201 6.9648 20.7558 8.37818C17.0457 10.4141 17.643 15.7143 21.3952 17.1361Z" fill="black"/>
<path d="M15.0257 4.56711C15.7492 3.64168 16.296 2.33766 16.0941 1C14.9163 1.08413 13.5366 1.83289 12.7289 2.80879C11.997 3.69216 11.3913 5.01299 11.6268 6.29177C12.914 6.33383 14.2433 5.55984 15.0173 4.57552L15.0257 4.56711Z" fill="black"/>
</svg>
