<svg width="25" height="24" viewBox="0 0 25 24" fill="none" xmlns="http://www.w3.org/2000/svg">
<path d="M17.9175 5C19.473 5 20.7052 5.47619 21.6139 6.42857C22.538 7.36508 23 8.77778 23 10.6667V18H19.396V11.2381C19.396 10.2222 19.1881 9.46825 18.7723 8.97619C18.3718 8.46825 17.7943 8.21429 17.0396 8.21429C16.1925 8.21429 15.5226 8.5 15.0297 9.07143C14.5369 9.62698 14.2904 10.4603 14.2904 11.5714V18H10.6865V11.2381C10.6865 9.22222 9.90099 8.21429 8.33003 8.21429C7.49835 8.21429 6.83608 8.5 6.34323 9.07143C5.85039 9.62698 5.60396 10.4603 5.60396 11.5714V18H2V6.42857L5.44224 5.19048V6.66667C5.90429 6.12698 6.46645 5.71429 7.12871 5.42857C7.80638 5.14286 8.54566 5 9.34654 5C10.2244 5 11.0176 5.18254 11.7261 5.54762C12.4345 5.89682 13.0044 6.4127 13.4356 7.09524C13.9439 6.42857 14.5831 5.9127 15.3531 5.54762C16.1386 5.18254 16.9934 5 17.9175 5Z" fill="#62B4DA"/>
</svg>
