<svg width="24" height="24" viewBox="0 0 24 24" fill="none" xmlns="http://www.w3.org/2000/svg">
<g id="Navigation/Time-Inactive">
<g id="history / inactive">
<g id="icon / history / inactive">
<g id="History">
<path id="Union" fill-rule="evenodd" clip-rule="evenodd" d="M4.5 12.25C4.5 7.96979 7.96979 4.5 12.25 4.5C16.5302 4.5 20 7.96979 20 12.25C20 16.5302 16.5302 20 12.25 20C7.96979 20 4.5 16.5302 4.5 12.25ZM12.25 3C7.14137 3 3 7.14137 3 12.25C3 17.3586 7.14137 21.5 12.25 21.5C17.3586 21.5 21.5 17.3586 21.5 12.25C21.5 7.14137 17.3586 3 12.25 3ZM12.7378 8.45703C12.7378 8.04282 12.402 7.70703 11.9878 7.70703C11.5736 7.70703 11.2378 8.04282 11.2378 8.45703V13.0404C11.2378 13.2393 11.3168 13.43 11.4575 13.5707L13.9575 16.0707C14.2504 16.3636 14.7252 16.3636 15.0181 16.0707C15.311 15.7778 15.311 15.3029 15.0181 15.01L12.7378 12.7297V8.45703Z" fill="#4F4F4F"/>
</g>
</g>
</g>
</g>
</svg>
