<svg width="100" height="100" viewBox="0 0 100 100" fill="none" xmlns="http://www.w3.org/2000/svg">
<g id="Avatar" clip-path="url(#clip0_1318_15994)">
<circle id="Ellipse 1895" cx="50" cy="50" r="50" fill="#BDBDBD"/>
<path id="m" d="M62.3828 36C65.9384 36 68.7547 37.0256 70.8317 39.0769C72.9439 41.094 74 44.1368 74 48.2051V64H65.7624V49.4359C65.7624 47.2479 65.2871 45.6239 64.3366 44.5641C63.4213 43.4701 62.1012 42.9231 60.3762 42.9231C58.44 42.9231 56.9087 43.5385 55.7822 44.7692C54.6557 45.9658 54.0924 47.7607 54.0924 50.1538V64H45.8548V49.4359C45.8548 45.094 44.0594 42.9231 40.4686 42.9231C38.5677 42.9231 37.0539 43.5385 35.9274 44.7692C34.8009 45.9658 34.2376 47.7607 34.2376 50.1538V64H26V39.0769L33.868 36.4103V39.5897C34.9241 38.4273 36.209 37.5385 37.7228 36.9231C39.2717 36.3077 40.9615 36 42.7921 36C44.7987 36 46.6117 36.3932 48.231 37.1795C49.8504 37.9316 51.1529 39.0427 52.1386 40.5128C53.3003 39.0769 54.7613 37.9658 56.5215 37.1795C58.3168 36.3932 60.2706 36 62.3828 36Z" fill="white"/>
</g>
<defs>
<clipPath id="clip0_1318_15994">
<rect width="100" height="100" fill="white"/>
</clipPath>
</defs>
</svg>
