<svg width="100" height="100" viewBox="0 0 100 100" fill="none" xmlns="http://www.w3.org/2000/svg">
<g id="Size=Xlarge, Type=Clinic-tablet" clip-path="url(#clip0_1318_16132)">
<path id="Vector" d="M100 50C100 77.6143 77.6143 100 50 100C22.3857 100 0 77.6143 0 50C0 22.3857 22.3857 0 50 0C77.6143 0 100 22.3857 100 50Z" fill="white"/>
<path id="Vector_2" fill-rule="evenodd" clip-rule="evenodd" d="M50 94C74.3005 94 94 74.3005 94 50C94 25.6995 74.3005 6 50 6C25.6995 6 6 25.6995 6 50C6 74.3005 25.6995 94 50 94ZM50 100C77.6142 100 100 77.6142 100 50C100 22.3857 77.6142 0 50 0C22.3857 0 0 22.3857 0 50C0 77.6142 22.3857 100 50 100Z" fill="#BDBDBD"/>
<path id="Vector_3" d="M54.911 71.4286C50.9486 71.4286 47.8621 70.4319 45.6513 68.4383C43.4407 66.4031 42.3355 63.392 42.3355 59.4049V30H52.0957V59.2803C52.0957 60.6925 52.471 61.7931 53.2218 62.5822C53.9726 63.3297 54.9944 63.7035 56.2875 63.7035C57.8307 63.7035 59.1446 63.2882 60.229 62.4575L62.8569 69.3105C61.8558 70.0165 60.6463 70.5565 59.2281 70.9302C57.8517 71.2625 56.4126 71.4286 54.911 71.4286ZM37.1426 45.6369V38.1611H60.4793V45.6369H37.1426Z" fill="#BDBDBD"/>
</g>
<defs>
<clipPath id="clip0_1318_16132">
<rect width="100" height="100" fill="white"/>
</clipPath>
</defs>
</svg>
