<svg width="100" height="100" viewBox="0 0 100 100" fill="none" xmlns="http://www.w3.org/2000/svg">
<g id="Size=Xlarge, Type=Dashboard" clip-path="url(#clip0_1413_9150)">
<circle id="Ellipse 1895" cx="50" cy="50" r="50" fill="#62B4DA"/>
<path id="m" d="M46.8669 37C50.2743 37 52.9732 37.989 54.9637 39.967C56.9879 41.9121 58 44.8462 58 48.7692V64H50.1056V49.956C50.1056 47.8462 49.6502 46.2802 48.7393 45.2582C47.8621 44.2033 46.597 43.6758 44.9439 43.6758C43.0884 43.6758 41.6208 44.2692 40.5413 45.456C39.4617 46.6099 38.9219 48.3407 38.9219 50.6484V64H31.0275V49.956C31.0275 45.7692 29.3069 43.6758 25.8658 43.6758C24.044 43.6758 22.5933 44.2692 21.5138 45.456C20.4342 46.6099 19.8944 48.3407 19.8944 50.6484V64H12V39.967L19.5402 37.3956V40.4615C20.5523 39.3407 21.7836 38.4835 23.2343 37.8901C24.7187 37.2967 26.3381 37 28.0924 37C30.0154 37 31.7528 37.3791 33.3047 38.1374C34.8566 38.8626 36.1049 39.9341 37.0495 41.3516C38.1628 39.967 39.5629 38.8956 41.2497 38.1374C42.9703 37.3791 44.8427 37 46.8669 37Z" fill="white"/>
<path id="Vector" d="M75.1252 56.9836C72.4545 57.3944 69.8864 55.6828 68.688 52.9441L74.509 52.0541L87.8971 49.9657L88 49.8974C88 49.247 87.9314 48.5623 87.8287 47.8776C86.6646 40.2435 79.5082 34.9715 71.8723 36.1699C64.2366 37.3337 58.9978 44.4885 60.1619 52.1224C61.326 59.7566 68.4824 65.0283 76.1183 63.8302C82.3502 62.8716 87.0069 57.9421 87.863 51.9855L79.5082 53.2522C78.7205 55.2377 77.1454 56.6754 75.1252 56.9836ZM73.0023 43.0505C75.1938 42.7083 77.3167 43.8038 78.6864 45.755L68.414 47.3299C69.0989 45.1046 70.8108 43.393 73.0023 43.0505Z" fill="white"/>
</g>
<defs>
<clipPath id="clip0_1413_9150">
<rect width="100" height="100" fill="white"/>
</clipPath>
</defs>
</svg>
