<svg width="24" height="24" viewBox="0 0 24 24" fill="none" xmlns="http://www.w3.org/2000/svg">
<g id="icoMetri">
<path id="m" d="M18.1914 5C19.9692 5 21.3773 5.51282 22.4158 6.53846C23.4719 7.54701 24 9.06838 24 11.1026V19H19.8812V11.7179C19.8812 10.6239 19.6436 9.81197 19.1683 9.28205C18.7107 8.73504 18.0506 8.46154 17.1881 8.46154C16.22 8.46154 15.4543 8.76923 14.8911 9.38461C14.3278 9.98291 14.0462 10.8803 14.0462 12.0769V19H9.92739V11.7179C9.92739 9.54701 9.0297 8.46154 7.23432 8.46154C6.28383 8.46154 5.52695 8.76923 4.9637 9.38461C4.40044 9.98291 4.11881 10.8803 4.11881 12.0769V19H0V6.53846L3.93399 5.20513V6.79487C4.46205 6.21367 5.10451 5.76923 5.86139 5.46154C6.63586 5.15385 7.48075 5 8.39604 5C9.39934 5 10.3058 5.19658 11.1155 5.58974C11.9252 5.96581 12.5765 6.52137 13.0693 7.25641C13.6502 6.53846 14.3806 5.98291 15.2607 5.58974C16.1584 5.19658 17.1353 5 18.1914 5Z" fill="#62B4DA"/>
</g>
</svg>
